<mxfile host="app.diagrams.net" modified="2024-06-12T12:02:39.826Z" agent="Mozilla/5.0 (X11; Linux x86_64) AppleWebKit/537.36 (KHTML, like Gecko) Chrome/104.0.0.0 Safari/537.36" etag="eYMCxQKX2k5nZaDwGnjd" version="24.5.3" type="github">
  <diagram name="Page-1" id="5RWQs3kXL790tDM_O4KD">
    <mxGraphModel dx="-16498696" dy="-24242" grid="1" gridSize="10" guides="1" tooltips="1" connect="1" arrows="1" fold="1" page="1" pageScale="1" pageWidth="5000" pageHeight="5000" math="0" shadow="0">
      <root>
        <mxCell id="0" />
        <mxCell id="1" parent="0" />
        <mxCell id="q8dBn_YlhrmXgaq97wFI-1" value="Öğrenci" style="rounded=0;whiteSpace=wrap;html=1;" vertex="1" parent="1">
          <mxGeometry x="16500870" y="26180" width="120" height="80" as="geometry" />
        </mxCell>
        <mxCell id="q8dBn_YlhrmXgaq97wFI-2" value="Öğrenci No" style="ellipse;whiteSpace=wrap;html=1;" vertex="1" parent="1">
          <mxGeometry x="16500650" y="26040" width="120" height="80" as="geometry" />
        </mxCell>
        <mxCell id="q8dBn_YlhrmXgaq97wFI-3" value="Adı" style="ellipse;whiteSpace=wrap;html=1;" vertex="1" parent="1">
          <mxGeometry x="16500800" y="26040" width="120" height="80" as="geometry" />
        </mxCell>
        <mxCell id="q8dBn_YlhrmXgaq97wFI-4" value="Soyadı" style="ellipse;whiteSpace=wrap;html=1;" vertex="1" parent="1">
          <mxGeometry x="16500950" y="26040" width="120" height="80" as="geometry" />
        </mxCell>
        <mxCell id="q8dBn_YlhrmXgaq97wFI-5" value="Kayıt Tarihi" style="ellipse;whiteSpace=wrap;html=1;" vertex="1" parent="1">
          <mxGeometry x="16501100" y="26040" width="120" height="80" as="geometry" />
        </mxCell>
        <mxCell id="q8dBn_YlhrmXgaq97wFI-6" value="" style="endArrow=classic;html=1;rounded=0;entryX=0.5;entryY=1;entryDx=0;entryDy=0;" edge="1" parent="1" target="q8dBn_YlhrmXgaq97wFI-2">
          <mxGeometry width="50" height="50" relative="1" as="geometry">
            <mxPoint x="16500930" y="26180" as="sourcePoint" />
            <mxPoint x="16500980" y="26130" as="targetPoint" />
          </mxGeometry>
        </mxCell>
        <mxCell id="q8dBn_YlhrmXgaq97wFI-7" value="" style="endArrow=classic;html=1;rounded=0;entryX=0.5;entryY=1;entryDx=0;entryDy=0;" edge="1" parent="1" target="q8dBn_YlhrmXgaq97wFI-3">
          <mxGeometry width="50" height="50" relative="1" as="geometry">
            <mxPoint x="16500930" y="26180" as="sourcePoint" />
            <mxPoint x="16500980" y="26130" as="targetPoint" />
          </mxGeometry>
        </mxCell>
        <mxCell id="q8dBn_YlhrmXgaq97wFI-8" value="" style="endArrow=classic;html=1;rounded=0;entryX=0.5;entryY=1;entryDx=0;entryDy=0;" edge="1" parent="1" target="q8dBn_YlhrmXgaq97wFI-4">
          <mxGeometry width="50" height="50" relative="1" as="geometry">
            <mxPoint x="16500930" y="26180" as="sourcePoint" />
            <mxPoint x="16500980" y="26130" as="targetPoint" />
          </mxGeometry>
        </mxCell>
        <mxCell id="q8dBn_YlhrmXgaq97wFI-9" value="" style="endArrow=classic;html=1;rounded=0;entryX=0.5;entryY=1;entryDx=0;entryDy=0;" edge="1" parent="1" target="q8dBn_YlhrmXgaq97wFI-5">
          <mxGeometry width="50" height="50" relative="1" as="geometry">
            <mxPoint x="16500930" y="26180" as="sourcePoint" />
            <mxPoint x="16500980" y="26130" as="targetPoint" />
          </mxGeometry>
        </mxCell>
        <mxCell id="q8dBn_YlhrmXgaq97wFI-20" value="" style="endArrow=none;html=1;rounded=0;strokeWidth=5;" edge="1" parent="1">
          <mxGeometry width="50" height="50" relative="1" as="geometry">
            <mxPoint x="16500650" y="26100" as="sourcePoint" />
            <mxPoint x="16500770" y="26100" as="targetPoint" />
          </mxGeometry>
        </mxCell>
        <mxCell id="q8dBn_YlhrmXgaq97wFI-22" value="Lideridir" style="rhombus;whiteSpace=wrap;html=1;" vertex="1" parent="1">
          <mxGeometry x="16501180" y="26180" width="200" height="80" as="geometry" />
        </mxCell>
        <mxCell id="q8dBn_YlhrmXgaq97wFI-23" value="" style="endArrow=none;html=1;rounded=0;entryX=0;entryY=0.5;entryDx=0;entryDy=0;" edge="1" parent="1" target="q8dBn_YlhrmXgaq97wFI-22">
          <mxGeometry width="50" height="50" relative="1" as="geometry">
            <mxPoint x="16500990" y="26220" as="sourcePoint" />
            <mxPoint x="16501040" y="26170" as="targetPoint" />
          </mxGeometry>
        </mxCell>
        <mxCell id="q8dBn_YlhrmXgaq97wFI-24" value="Grup Lideri" style="text;strokeColor=none;fillColor=none;align=left;verticalAlign=middle;spacingLeft=4;spacingRight=4;overflow=hidden;points=[[0,0.5],[1,0.5]];portConstraint=eastwest;rotatable=0;whiteSpace=wrap;html=1;" vertex="1" parent="1">
          <mxGeometry x="16501050" y="26230" width="80" height="30" as="geometry" />
        </mxCell>
        <mxCell id="q8dBn_YlhrmXgaq97wFI-25" value="1" style="text;strokeColor=none;fillColor=none;align=left;verticalAlign=middle;spacingLeft=4;spacingRight=4;overflow=hidden;points=[[0,0.5],[1,0.5]];portConstraint=eastwest;rotatable=0;whiteSpace=wrap;html=1;" vertex="1" parent="1">
          <mxGeometry x="16501170" y="26230" width="80" height="30" as="geometry" />
        </mxCell>
        <mxCell id="q8dBn_YlhrmXgaq97wFI-26" value="N" style="text;strokeColor=none;fillColor=none;align=left;verticalAlign=middle;spacingLeft=4;spacingRight=4;overflow=hidden;points=[[0,0.5],[1,0.5]];portConstraint=eastwest;rotatable=0;whiteSpace=wrap;html=1;" vertex="1" parent="1">
          <mxGeometry x="16501360" y="26230" width="80" height="30" as="geometry" />
        </mxCell>
        <mxCell id="q8dBn_YlhrmXgaq97wFI-27" value="" style="endArrow=none;html=1;rounded=0;entryX=0;entryY=0.5;entryDx=0;entryDy=0;" edge="1" parent="1">
          <mxGeometry width="50" height="50" relative="1" as="geometry">
            <mxPoint x="16501380" y="26219.55" as="sourcePoint" />
            <mxPoint x="16501570" y="26219.55" as="targetPoint" />
          </mxGeometry>
        </mxCell>
        <mxCell id="q8dBn_YlhrmXgaq97wFI-28" value="Grup Üyesi" style="text;strokeColor=none;fillColor=none;align=left;verticalAlign=middle;spacingLeft=4;spacingRight=4;overflow=hidden;points=[[0,0.5],[1,0.5]];portConstraint=eastwest;rotatable=0;whiteSpace=wrap;html=1;" vertex="1" parent="1">
          <mxGeometry x="16501420" y="26230" width="80" height="30" as="geometry" />
        </mxCell>
        <mxCell id="q8dBn_YlhrmXgaq97wFI-29" value="" style="endArrow=none;html=1;rounded=0;" edge="1" parent="1">
          <mxGeometry width="50" height="50" relative="1" as="geometry">
            <mxPoint x="16501570" y="26320" as="sourcePoint" />
            <mxPoint x="16501570" y="26220" as="targetPoint" />
          </mxGeometry>
        </mxCell>
        <mxCell id="q8dBn_YlhrmXgaq97wFI-30" value="" style="endArrow=none;html=1;rounded=0;entryX=0;entryY=0.5;entryDx=0;entryDy=0;" edge="1" parent="1">
          <mxGeometry width="50" height="50" relative="1" as="geometry">
            <mxPoint x="16500930" y="26320" as="sourcePoint" />
            <mxPoint x="16501570" y="26320" as="targetPoint" />
          </mxGeometry>
        </mxCell>
        <mxCell id="q8dBn_YlhrmXgaq97wFI-31" value="" style="endArrow=none;html=1;rounded=0;entryX=0.5;entryY=1;entryDx=0;entryDy=0;" edge="1" parent="1" target="q8dBn_YlhrmXgaq97wFI-1">
          <mxGeometry width="50" height="50" relative="1" as="geometry">
            <mxPoint x="16500930" y="26320" as="sourcePoint" />
            <mxPoint x="16500980" y="26270" as="targetPoint" />
          </mxGeometry>
        </mxCell>
      </root>
    </mxGraphModel>
  </diagram>
</mxfile>
